<svg width="41" height="42" viewBox="0 0 41 42" fill="none" xmlns="http://www.w3.org/2000/svg">
<path fill-rule="evenodd" clip-rule="evenodd" d="M19.996 38.738C29.8127 38.738 37.7708 30.78 37.7708 20.9633C37.7708 11.1465 29.8127 3.18848 19.996 3.18848C10.1792 3.18848 2.22119 11.1465 2.22119 20.9633C2.22119 24.72 3.38666 28.2046 5.37576 31.0751C4.75495 33.31 3.8817 36.318 3.3333 38.1826L10.5901 36.0483C13.3182 37.7529 16.542 38.738 19.996 38.738Z" fill="url(#paint0_radial_180_12)"/>
<path fill-rule="evenodd" clip-rule="evenodd" d="M34.2231 6.81674C32.3753 4.9568 30.1768 3.48201 27.755 2.4778C25.3332 1.4736 22.7362 0.959953 20.1144 0.966617C9.12069 0.966617 0.171082 9.914 0.166639 20.9121C0.166639 24.4271 1.08426 27.8576 2.82841 30.8838L0 41.2176L10.5738 38.4425C13.4986 40.0347 16.7754 40.8695 20.1055 40.871H20.1144C31.1059 40.871 40.0555 31.9236 40.0599 20.9255C40.0675 18.3048 39.5555 15.7086 38.5537 13.2869C37.5518 10.8652 36.08 8.66615 34.2231 6.81674ZM20.1144 37.5049H20.1077C17.1383 37.5052 14.2235 36.7063 11.6691 35.192L11.0648 34.832L4.7903 36.4784L6.46336 30.3617L6.07009 29.7351C4.4099 27.092 3.53103 24.0334 3.53496 20.9121C3.5394 11.7715 10.9759 4.33494 20.1211 4.33494C22.299 4.3301 24.4563 4.75727 26.4681 5.59173C28.4799 6.42619 30.3062 7.65136 31.8413 9.19634C33.3846 10.734 34.6079 12.5622 35.4404 14.5754C36.273 16.5887 36.6982 18.7469 36.6916 20.9255C36.6872 30.0662 29.2506 37.5049 20.1144 37.5049ZM29.2084 25.087C28.7085 24.8359 26.26 23.6317 25.8023 23.465C25.3468 23.2984 25.0158 23.2162 24.6825 23.7139C24.3492 24.2116 23.3938 25.3336 23.1028 25.6669C22.8117 26.0002 22.5207 26.0402 22.023 25.7913C21.5253 25.5425 19.9189 25.0159 18.0147 23.3184C16.5328 21.9964 15.5329 20.3656 15.2419 19.8657C14.9508 19.3657 15.2108 19.0969 15.4618 18.848C15.6862 18.6259 15.9595 18.2659 16.2084 17.9749C16.4572 17.6838 16.5394 17.4772 16.7061 17.1439C16.8727 16.8106 16.7905 16.5195 16.6639 16.2707C16.5394 16.0196 15.5418 13.5667 15.1263 12.5691C14.7242 11.6026 14.3131 11.7315 14.0065 11.7181C13.689 11.7051 13.3712 11.6992 13.0534 11.7004C12.8006 11.7068 12.552 11.7654 12.3229 11.8724C12.0939 11.9795 11.8895 12.1327 11.7225 12.3225C11.2648 12.8224 9.97832 14.0266 9.97832 16.4796C9.97832 18.9325 11.7647 21.3032 12.0135 21.6365C12.2624 21.9697 15.5285 27.0022 20.5277 29.1619C21.7186 29.6751 22.6473 29.9817 23.3694 30.2128C24.5625 30.5927 25.649 30.5372 26.5089 30.4105C27.4665 30.2683 29.4573 29.2063 29.8727 28.042C30.2882 26.8778 30.2882 25.8802 30.1638 25.6713C30.0394 25.4625 29.7039 25.3358 29.2084 25.087Z" fill="white"/>
<defs>
<radialGradient id="paint0_radial_180_12" cx="0" cy="0" r="1" gradientUnits="userSpaceOnUse" gradientTransform="translate(8.88674 7.07671) rotate(70.6652) scale(33.5538)">
<stop stop-color="#00FF38"/>
<stop offset="1" stop-color="#00C72C"/>
</radialGradient>
</defs>
</svg>
