<svg width="512" height="512" viewBox="0 0 512 512" fill="none" xmlns="http://www.w3.org/2000/svg">
<g clip-path="url(#clip0_111_53)">
<path fill-rule="evenodd" clip-rule="evenodd" d="M501.299 229.944L282.138 10.7532C267.799 -3.5844 244.306 -3.5844 229.967 10.7532L10.7543 229.944C-3.58477 244.281 -3.58477 267.772 10.7543 282.109L229.915 501.247C244.254 515.584 267.746 515.584 282.085 501.247L501.246 282.109C515.585 267.772 515.585 244.281 501.246 229.944H501.299Z" fill="#FF5B00"/>
<path fill-rule="evenodd" clip-rule="evenodd" d="M261.238 386.916C190.019 386.916 132.292 328.296 132.292 256.026C132.292 183.756 190.019 125.136 261.238 125.136C283.408 125.136 304.255 130.797 322.51 140.797L257.322 253.751L379.866 307.504C360.183 354.167 314.467 386.916 261.291 386.916H261.238Z" fill="white"/>
</g>
<defs>
<clipPath id="clip0_111_53">
<rect width="512" height="512" fill="white"/>
</clipPath>
</defs>
</svg>
