<svg width="157" height="63" viewBox="0 0 157 63" fill="none" xmlns="http://www.w3.org/2000/svg">
<path fill-rule="evenodd" clip-rule="evenodd" d="M61.0683 28.0147L34.3702 1.31009C32.6234 -0.436697 29.7615 -0.436697 28.0147 1.31009L1.31009 28.0147C-0.436697 29.7615 -0.436697 32.6234 1.31009 34.3702L28.0083 61.0683C29.755 62.8151 32.6169 62.8151 34.3637 61.0683L61.0619 34.3702C62.8087 32.6234 62.8087 29.7615 61.0619 28.0147H61.0683ZM31.8177 47.1391C23.1417 47.1391 16.1095 39.9973 16.1095 31.1924C16.1095 22.3876 23.1417 15.2457 31.8177 15.2457C34.5184 15.2457 37.058 15.9354 39.2818 17.1537L31.3407 30.9153L46.269 37.4641C43.8712 43.1492 38.3021 47.1391 31.8241 47.1391H31.8177Z" fill="#FF5B00"/>
<path fill-rule="evenodd" clip-rule="evenodd" d="M139.371 21.1629L142.587 24.9853C142.832 24.5534 143.025 24.0764 143.161 23.5672C143.296 23.058 143.386 22.5037 143.432 21.8978H146.158C146.094 22.8775 145.92 23.7928 145.617 24.6565C145.32 25.5203 144.895 26.326 144.347 27.0866L147.879 31.2505H144.173L142.561 29.3103C141.801 30.116 140.937 30.7155 139.964 31.1216C138.997 31.5212 137.914 31.721 136.715 31.721C135.091 31.721 133.75 31.2054 132.699 30.1676C131.642 29.1299 131.114 27.8278 131.114 26.2422C131.114 25.1013 131.442 24.0957 132.094 23.2385C132.745 22.3812 133.84 21.5239 135.374 20.6731C134.627 19.8158 134.117 19.081 133.827 18.4751C133.537 17.8692 133.396 17.2504 133.396 16.6252C133.396 15.3618 133.827 14.3369 134.698 13.5441C135.561 12.7577 136.702 12.3581 138.107 12.3581C139.513 12.3581 140.653 12.7191 141.478 13.4474C142.304 14.1758 142.716 15.162 142.716 16.406C142.716 17.36 142.445 18.2173 141.897 18.9972C141.35 19.7771 140.505 20.499 139.371 21.1565M140.937 27.3444L136.908 22.5359C135.922 23.0902 135.213 23.6445 134.775 24.2053C134.33 24.7661 134.111 25.3849 134.111 26.0681C134.111 26.9641 134.401 27.6989 134.988 28.2661C135.574 28.8398 136.335 29.1234 137.263 29.1234C137.927 29.1234 138.571 28.9687 139.203 28.6593C139.835 28.3564 140.415 27.9116 140.937 27.3444ZM137.869 19.4548C138.629 19.0036 139.19 18.5331 139.551 18.0561C139.912 17.5791 140.093 17.057 140.093 16.4898C140.093 15.9226 139.919 15.4327 139.577 15.0911C139.235 14.7495 138.765 14.5754 138.178 14.5754C137.534 14.5754 137.024 14.7366 136.664 15.0653C136.303 15.394 136.122 15.8388 136.122 16.3996C136.122 16.8379 136.257 17.2891 136.515 17.7532C136.78 18.2237 137.231 18.7845 137.869 19.4484V19.4548Z" fill="#FF5B00"/>
<path fill-rule="evenodd" clip-rule="evenodd" d="M124.7 30.6124V18.9843H125.996V21.0211C126.325 20.2412 126.789 19.6611 127.382 19.2679C127.975 18.8811 128.703 18.6878 129.561 18.6878H129.715V20.0994H129.541C128.387 20.0994 127.524 20.441 126.95 21.1243C126.376 21.8139 126.086 22.8324 126.086 24.1989V30.6059H124.707L124.7 30.6124ZM111.674 25.0368C111.674 23.0902 112.138 21.5883 113.066 20.5184C113.994 19.4484 115.296 18.9198 116.979 18.9198C118.661 18.9198 119.982 19.4548 120.917 20.5184C121.851 21.5883 122.316 23.0902 122.316 25.0368C122.316 26.9834 121.851 28.4659 120.923 29.5295C119.995 30.593 118.68 31.1216 116.985 31.1216C115.29 31.1216 113.994 30.593 113.072 29.5295C112.144 28.4724 111.68 26.9705 111.68 25.0304L111.674 25.0368ZM113.053 25.0368C113.053 26.5967 113.395 27.8085 114.084 28.6722C114.768 29.5359 115.734 29.9613 116.979 29.9613C118.223 29.9613 119.202 29.5359 119.886 28.6786C120.562 27.8278 120.91 26.6096 120.91 25.0368C120.91 23.464 120.569 22.2458 119.886 21.3885C119.202 20.5312 118.229 20.1058 116.979 20.1058C115.728 20.1058 114.774 20.5377 114.084 21.395C113.395 22.2523 113.053 23.464 113.053 25.0368ZM107.967 15.871V19.2099H110.107V20.3056H107.967V28.7753C107.967 29.2716 108.032 29.6004 108.154 29.7615C108.277 29.9227 108.496 30.0065 108.818 30.0065C108.954 30.0065 109.115 29.9936 109.289 29.9678C109.463 29.942 109.734 29.8904 110.101 29.8066L110.114 30.8831C109.785 30.9669 109.489 31.0313 109.224 31.07C108.954 31.1087 108.702 31.128 108.464 31.128C107.8 31.128 107.329 30.9604 107.052 30.6188C106.775 30.2772 106.64 29.6648 106.64 28.7753V20.3056H105.06V19.2099H106.64V15.871H107.98H107.967ZM102.437 27.0479H103.778C103.655 28.3821 103.165 29.4328 102.308 30.1998C101.451 30.9669 100.336 31.3472 98.9692 31.3472C97.4029 31.3472 96.1653 30.8122 95.2629 29.7293C94.3605 28.6529 93.9093 27.1832 93.9093 25.3269C93.9093 23.4705 94.3669 21.8913 95.2887 20.7891C96.204 19.6869 97.4673 19.139 99.0659 19.139C100.368 19.139 101.438 19.5064 102.276 20.2347C103.114 20.9696 103.565 21.93 103.629 23.1224H102.334C102.224 22.278 101.87 21.6012 101.27 21.0856C100.671 20.5764 99.9296 20.3185 99.053 20.3185C97.8992 20.3185 96.9839 20.7568 96.3006 21.6335C95.6238 22.5101 95.2822 23.6961 95.2822 25.1979C95.2822 26.6998 95.6238 27.9503 96.3135 28.8527C97.0032 29.7486 97.9185 30.1934 99.0723 30.1934C99.9747 30.1934 100.729 29.9162 101.328 29.3554C101.928 28.7947 102.302 28.0212 102.437 27.035V27.0479ZM81.9009 25.0368C81.9009 23.0902 82.365 21.5883 83.2932 20.5184C84.2214 19.4484 85.5234 18.9198 87.2057 18.9198C88.8881 18.9198 90.2094 19.4548 91.1441 20.5184C92.0787 21.5883 92.5428 23.0902 92.5428 25.0368C92.5428 26.9834 92.0787 28.4659 91.1505 29.5295C90.2223 30.593 88.9074 31.1216 87.2122 31.1216C85.517 31.1216 84.2214 30.593 83.2996 29.5295C82.3714 28.4724 81.9074 26.9705 81.9074 25.0304L81.9009 25.0368ZM83.2803 25.0368C83.2803 26.5967 83.6219 27.8085 84.3116 28.6722C84.9949 29.5359 85.9617 29.9613 87.2057 29.9613C88.4498 29.9613 89.4295 29.5359 90.1128 28.6786C90.796 27.8278 91.1376 26.6096 91.1376 25.0368C91.1376 23.464 90.796 22.2458 90.1128 21.3885C89.4295 20.5312 88.4562 20.1058 87.2057 20.1058C85.9553 20.1058 85.0013 20.5377 84.3116 21.395C83.6219 22.2523 83.2803 23.464 83.2803 25.0368ZM71.2204 14.7301H72.3097C73.6311 14.7301 74.6237 14.801 75.2812 14.9364C75.9386 15.0717 76.5123 15.2973 76.9893 15.6003C77.9755 16.2255 78.7296 17.1537 79.2517 18.3719C79.7674 19.5902 80.0317 21.0534 80.0317 22.7486C80.0317 24.5792 79.748 26.1132 79.1808 27.3637C78.6136 28.6077 77.7821 29.5295 76.667 30.1354C76.2029 30.3868 75.6292 30.5608 74.9589 30.6704C74.2821 30.7735 73.2508 30.8251 71.8649 30.8251H67.4561V14.7301H71.2268H71.2204ZM68.9257 29.5101H72.0261C73.2379 29.5101 74.1209 29.465 74.6817 29.3748C75.236 29.2845 75.7066 29.1298 76.074 28.9107C76.8861 28.4208 77.492 27.6731 77.8917 26.674C78.2913 25.6685 78.4911 24.3793 78.4911 22.7937C78.4911 21.208 78.2978 20.0285 77.9175 19.0294C77.5307 18.0303 76.957 17.2762 76.1964 16.7734C75.8033 16.5091 75.3263 16.3222 74.7526 16.2191C74.1789 16.1159 73.2185 16.0579 71.8649 16.0579H68.9257V29.5166V29.5101Z" fill="#040404"/>
<path fill-rule="evenodd" clip-rule="evenodd" d="M155.608 38.5857V41.9439H154.699C153.332 41.9439 152.301 42.2727 151.618 42.9366C150.928 43.594 150.58 44.5867 150.58 45.908V54.2875H147.196V38.9144H150.399V41.6216C150.87 40.5968 151.469 39.8297 152.211 39.3205C152.958 38.8177 153.829 38.5599 154.847 38.5599H154.931C155.169 38.5793 155.395 38.5921 155.601 38.5921M137.502 38.4181C139.957 38.4181 141.891 39.14 143.296 40.5968C144.701 42.0535 145.398 44.0517 145.398 46.6042C145.398 49.1567 144.701 51.1613 143.303 52.6116C141.91 54.0619 139.983 54.7838 137.527 54.7838C135.072 54.7838 133.125 54.0619 131.733 52.618C130.334 51.1742 129.638 49.1696 129.638 46.6042C129.638 44.0388 130.334 42.0406 131.72 40.5903C133.106 39.14 135.033 38.4181 137.495 38.4181H137.502ZM137.54 41.222C136.122 41.222 135.033 41.6861 134.266 42.6207C133.499 43.5489 133.118 44.8896 133.118 46.6235C133.118 48.3574 133.499 49.6917 134.259 50.6134C135.014 51.5351 136.116 51.9928 137.54 51.9928C138.965 51.9928 140.048 51.5287 140.795 50.6134C141.549 49.6917 141.93 48.3639 141.93 46.6235C141.93 44.8832 141.556 43.5489 140.795 42.6207C140.041 41.6925 138.958 41.222 137.54 41.222ZM123.192 34.9761H126.576V39.2045H129.257V41.6281H126.576V50.6779C126.576 51.2386 126.673 51.6125 126.86 51.793C127.047 51.9799 127.401 52.0701 127.917 52.0701C128.007 52.0701 128.123 52.0701 128.265 52.0573C128.407 52.0444 128.516 52.0444 128.587 52.0444L129.257 52.0121V54.6098C129.174 54.6226 129.064 54.6291 128.916 54.642C127.943 54.7387 127.253 54.7902 126.86 54.7902C125.519 54.7902 124.571 54.5195 124.017 53.9781C123.463 53.4366 123.192 52.4698 123.192 51.0775V41.6281H120.904V39.2045H123.192V34.9761ZM120.375 43.8776H117.036C116.953 42.9688 116.598 42.2469 115.979 41.7183C115.367 41.1962 114.561 40.9319 113.569 40.9319C112.241 40.9319 111.229 41.3831 110.558 42.292C109.875 43.1944 109.54 44.5351 109.54 46.3012C109.54 48.0674 109.875 49.3436 110.552 50.2525C111.229 51.1613 112.202 51.6125 113.485 51.6125C114.503 51.6125 115.335 51.3353 115.966 50.7746C116.598 50.2202 116.985 49.421 117.133 48.3703H120.427C120.272 50.2782 119.55 51.7801 118.261 52.863C116.978 53.9523 115.27 54.4937 113.137 54.4937C111.003 54.4937 109.211 53.7654 107.929 52.3022C106.646 50.839 106.008 48.8537 106.008 46.3463C106.008 43.839 106.665 41.7699 107.993 40.3196C109.321 38.8629 111.145 38.1345 113.472 38.1345C115.509 38.1345 117.14 38.6437 118.377 39.6686C119.615 40.687 120.285 42.0922 120.382 43.8841L120.375 43.8776ZM97.4414 38.1281C99.8972 38.1281 101.831 38.85 103.236 40.3067C104.641 41.7634 105.337 43.7616 105.337 46.3141C105.337 48.8666 104.641 50.8712 103.243 52.3215C101.85 53.7718 99.923 54.4937 97.4672 54.4937C95.0114 54.4937 93.0648 53.7718 91.6725 52.328C90.2738 50.8841 89.5776 48.8795 89.5776 46.3141C89.5776 43.7487 90.2738 41.7505 91.6596 40.3003C93.0454 38.85 94.9727 38.1281 97.435 38.1281H97.4414ZM97.4801 40.9319C96.062 40.9319 94.9727 41.396 94.2057 42.3307C93.4386 43.2588 93.0583 44.5996 93.0583 46.3335C93.0583 48.0674 93.4386 49.4016 94.1992 50.3234C94.9534 51.2451 96.0556 51.7027 97.4801 51.7027C98.9046 51.7027 99.9875 51.2386 100.735 50.3234C101.489 49.4016 101.87 48.0738 101.87 46.3335C101.87 44.5931 101.496 43.2588 100.735 42.3307C99.981 41.4025 98.8982 40.9319 97.4801 40.9319ZM85.0205 33.023H88.3143V53.9974H85.0656V51.9864C84.3695 52.8501 83.6154 53.4818 82.8161 53.8878C82.0104 54.2939 81.0951 54.4937 80.0638 54.4937C78.0076 54.4937 76.3381 53.7525 75.0683 52.2635C73.7985 50.7746 73.1604 48.8086 73.1604 46.3721C73.1604 43.9356 73.7985 41.9117 75.0683 40.3969C76.3446 38.8822 77.9947 38.1281 80.0315 38.1281C81.1144 38.1281 82.0684 38.3214 82.8999 38.7146C83.7249 39.1078 84.4404 39.7137 85.0205 40.513V33.0166V33.023ZM80.8179 40.99C79.4901 40.99 78.4588 41.4669 77.7111 42.4145C76.9763 43.3684 76.6024 44.7027 76.6024 46.4237C76.6024 48.1447 76.9763 49.3372 77.7175 50.2589C78.4588 51.1806 79.4965 51.6383 80.8115 51.6383C82.1909 51.6383 83.248 51.1742 83.9892 50.246C84.724 49.3243 85.0914 47.9771 85.0914 46.2045C85.0914 44.432 84.724 43.1944 84.0021 42.3113C83.2737 41.4283 82.2166 40.9835 80.8115 40.9835L80.8179 40.99Z" fill="#040404"/>
<path d="M153.242 13.2476C153.468 13.1316 153.648 12.9575 153.797 12.7384C153.945 12.5128 154.016 12.2485 154.016 11.9455C154.016 11.6426 153.945 11.3783 153.803 11.1721C153.661 10.9658 153.487 10.8047 153.268 10.6951C153.055 10.5855 152.83 10.5339 152.604 10.5339H150.432V15.0588H151.225V13.4345H152.469L153.32 15.0588H154.203L153.236 13.2605C153.236 13.2605 153.242 13.2605 153.249 13.2605L153.242 13.2476ZM151.225 11.1463H152.366C152.559 11.1463 152.739 11.2107 152.907 11.3332C153.075 11.4557 153.158 11.6619 153.158 11.9455C153.158 12.2292 153.075 12.4354 152.907 12.5837C152.739 12.7319 152.553 12.8093 152.346 12.8093H151.225V11.1463Z" fill="#040404"/>
<path d="M156.62 10.94C156.368 10.347 156.014 9.8249 155.563 9.38014C155.111 8.92894 154.589 8.58088 154.003 8.32305C153.41 8.07166 152.772 7.94275 152.095 7.94275C151.418 7.94275 150.78 8.07166 150.187 8.32305C149.594 8.57443 149.072 8.92894 148.627 9.38014C148.176 9.83134 147.828 10.3534 147.57 10.94C147.319 11.533 147.19 12.1711 147.19 12.8479C147.19 13.5247 147.319 14.1629 147.57 14.7559C147.821 15.3489 148.176 15.871 148.627 16.3157C149.078 16.7669 149.6 17.115 150.187 17.3728C150.78 17.6242 151.412 17.7531 152.095 17.7531C152.778 17.7531 153.41 17.6242 154.003 17.3728C154.596 17.1215 155.118 16.7669 155.563 16.3157C156.014 15.8645 156.362 15.3424 156.62 14.7559C156.871 14.1629 157 13.5312 157 12.8479C157 12.1647 156.871 11.533 156.62 10.94ZM155.55 14.8526C155.189 15.452 154.712 15.9354 154.106 16.2964C153.506 16.6574 152.836 16.8378 152.101 16.8378C151.367 16.8378 150.696 16.6574 150.097 16.2964C149.497 15.9354 149.014 15.4585 148.653 14.8526C148.292 14.2467 148.111 13.5828 148.111 12.8479C148.111 12.1131 148.292 11.4428 148.653 10.8433C149.014 10.2439 149.491 9.76044 150.097 9.39948C150.696 9.03852 151.367 8.85804 152.101 8.85804C152.836 8.85804 153.506 9.03852 154.106 9.39948C154.705 9.76044 155.189 10.2374 155.55 10.8433C155.911 11.4428 156.091 12.1131 156.091 12.8479C156.091 13.5828 155.911 14.2531 155.55 14.8526Z" fill="#040404"/>
</svg>
