<svg width="107" height="90" viewBox="0 0 107 90" fill="none" xmlns="http://www.w3.org/2000/svg">
<path d="M65.6638 48.2852C62.9024 48.2852 60.6638 46.0467 60.6638 43.2852V4.99999C60.6638 2.23857 62.9024 0 65.6638 0H102C104.761 0 107 2.23858 107 5V41.1036C107 65.1414 95.7296 81.0369 73.1887 88.7902C70.9697 89.5534 68.5542 88.5316 67.4342 86.4697L63.7788 79.7404C62.3065 77.0299 63.6302 73.6694 66.4441 72.4057C71.0376 70.3427 74.5981 68.0071 77.1254 65.399C79.7903 62.5703 81.4274 58.5294 82.0368 53.2763C82.3549 50.5333 80.0691 48.2852 77.3077 48.2852H65.6638ZM5 48.2852C2.23858 48.2852 0 46.0467 0 43.2852V4.99999C0 2.23857 2.23858 0 5 0H41.1838C43.9452 0 46.1838 2.23858 46.1838 5V41.1036C46.1838 65.1414 34.9133 81.0369 12.3724 88.7902C10.1535 89.5534 7.738 88.5316 6.61794 86.4697L2.96258 79.7404C1.49022 77.0299 2.81397 73.6694 5.62783 72.4057C10.2214 70.3427 13.7818 68.0071 16.3091 65.399C18.974 62.5703 20.6112 58.5294 21.2205 53.2763C21.5387 50.5333 19.2529 48.2852 16.4915 48.2852H5Z" fill="#FF5B00"/>
</svg>
